<svg width="97" height="32" viewBox="0 0 97 32" fill="none" xmlns="http://www.w3.org/2000/svg">
<g id="Frame 880">
<g id="by Hiflylabs">
<path d="M52.6633 25.2782C53.0781 25.2782 53.4438 25.3778 53.7604 25.577C54.0797 25.7762 54.3253 26.0532 54.4972 26.408C54.6718 26.7627 54.7592 27.1638 54.7592 27.6113C54.7592 28.0507 54.6732 28.4477 54.5013 28.8025C54.3321 29.1572 54.0919 29.4369 53.7808 29.6416C53.4725 29.8435 53.1191 29.9445 52.7207 29.9445C52.254 29.9445 51.8556 29.8189 51.5254 29.5679V29.8217H50.543V23.9275H51.6646V25.5484C51.9511 25.3683 52.284 25.2782 52.6633 25.2782ZM52.5405 28.9539C52.8844 28.9539 53.1436 28.8298 53.3183 28.5814C53.4929 28.3304 53.5803 28.007 53.5803 27.6113C53.5803 27.3576 53.5407 27.1297 53.4616 26.9278C53.3824 26.7259 53.2623 26.5662 53.1013 26.4489C52.9403 26.3288 52.7398 26.2688 52.4996 26.2688C52.164 26.2688 51.917 26.3875 51.7587 26.6249C51.6032 26.8623 51.5254 27.1911 51.5254 27.6113C51.5254 28.5064 51.8638 28.9539 52.5405 28.9539Z" fill="#001826"/>
<path d="M57.1578 28.4095L58.3121 25.401H59.4255L56.9285 31.7864H55.897L56.6256 29.7848L54.8409 25.401H55.9952L57.1578 28.4095Z" fill="#001826"/>
<path d="M62.7535 29.8217H61.6401V23.9275H62.7535V26.3506H65.3896V23.9275H66.5031V29.8217H65.3896V27.3903H62.7535V29.8217Z" fill="#001826"/>
<path d="M68.8475 24.7871H67.7341V23.8047H68.8475V24.7871ZM68.8475 29.8217H67.7341V25.401H68.8475V29.8217Z" fill="#001826"/>
<path d="M73.5541 23.8047H74.6675V29.8217H73.5541V26.2606H71.5565V29.8217H70.4431V26.2606H69.7473V25.401H70.4431C70.4431 25.2155 70.4459 25.0668 70.4513 24.9549C70.4595 24.8403 70.4854 24.7147 70.5291 24.5783C70.5728 24.4419 70.6423 24.3204 70.7379 24.214C70.888 24.0475 71.0544 23.9384 71.2373 23.8866C71.4228 23.832 71.6248 23.8047 71.8431 23.8047H72.0314H72.5799V24.7052H72.0723C71.9031 24.7052 71.7749 24.7475 71.6875 24.8321C71.6002 24.9167 71.5565 25.0245 71.5565 25.1554V25.401H73.5541V23.8047Z" fill="#001826"/>
<path d="M77.7207 28.4095L78.875 25.401H79.9884L77.4915 31.7864H76.4599L77.1885 29.7848L75.4038 25.401H76.5582L77.7207 28.4095Z" fill="#001826"/>
<path d="M81.7593 29.8217H80.6459V23.8047H81.7593V29.8217Z" fill="#001826"/>
<path d="M86.515 26.0805C86.5942 26.2279 86.6433 26.3779 86.6624 26.5307C86.6842 26.6808 86.6951 26.8773 86.6951 27.1202V29.8217H85.7209V29.2814C85.5244 29.516 85.3088 29.6852 85.0741 29.7889C84.8395 29.8926 84.5529 29.9445 84.2145 29.9445C83.9089 29.9445 83.6442 29.8858 83.4204 29.7685C83.1994 29.6484 83.0302 29.486 82.9128 29.2814C82.7982 29.0767 82.7409 28.8502 82.7409 28.6019C82.7409 28.2799 82.816 28.0084 82.966 27.7874C83.1161 27.5663 83.3631 27.393 83.707 27.2675C83.898 27.1966 84.1313 27.1365 84.4069 27.0874C84.6825 27.0356 85.0796 26.9714 85.5981 26.895C85.5763 26.6877 85.4999 26.5362 85.3689 26.4407C85.2406 26.3425 85.0469 26.2933 84.7876 26.2933C84.5993 26.2933 84.4206 26.337 84.2514 26.4243C84.0822 26.5116 83.9662 26.6481 83.9034 26.8336L82.8965 26.5144C83.0111 26.1323 83.2267 25.8308 83.5432 25.6098C83.8598 25.3887 84.2746 25.2782 84.7876 25.2782C85.6581 25.2782 86.2339 25.5457 86.515 26.0805ZM85.4753 28.4791C85.5462 28.3345 85.5845 28.1066 85.5899 27.7955C85.2051 27.861 84.9227 27.9129 84.7426 27.9511C84.5625 27.9893 84.411 28.0316 84.2882 28.078C84.1272 28.1435 84.0099 28.2171 83.9362 28.299C83.8652 28.3781 83.8298 28.4736 83.8298 28.5855C83.8298 28.7356 83.8843 28.8543 83.9935 28.9416C84.1054 29.0262 84.2582 29.0685 84.452 29.0685C84.6402 29.0685 84.8053 29.0358 84.9473 28.9703C85.0892 28.9021 85.2024 28.8229 85.287 28.7329C85.3743 28.6428 85.4371 28.5582 85.4753 28.4791Z" fill="#001826"/>
<path d="M89.8717 25.2782C90.2865 25.2782 90.6521 25.3778 90.9687 25.577C91.288 25.7762 91.5336 26.0532 91.7055 26.408C91.8802 26.7627 91.9675 27.1638 91.9675 27.6113C91.9675 28.0507 91.8815 28.4477 91.7096 28.8025C91.5404 29.1572 91.3003 29.4369 90.9892 29.6416C90.6808 29.8435 90.3274 29.9445 89.929 29.9445C89.4623 29.9445 89.0639 29.8189 88.7337 29.5679V29.8217H87.7513V23.9275H88.8729V25.5484C89.1594 25.3683 89.4923 25.2782 89.8717 25.2782ZM89.7489 28.9539C90.0927 28.9539 90.352 28.8298 90.5266 28.5814C90.7013 28.3304 90.7886 28.007 90.7886 27.6113C90.7886 27.3576 90.749 27.1297 90.6699 26.9278C90.5907 26.7259 90.4707 26.5662 90.3097 26.4489C90.1487 26.3288 89.9481 26.2688 89.7079 26.2688C89.3723 26.2688 89.1253 26.3875 88.967 26.6249C88.8115 26.8623 88.7337 27.1911 88.7337 27.6113C88.7337 28.5064 89.0721 28.9539 89.7489 28.9539Z" fill="#001826"/>
<path d="M94.4757 29.9445C93.919 29.9445 93.4687 29.8189 93.1249 29.5679C92.7838 29.3168 92.5764 28.9594 92.5027 28.4955L93.6407 28.3236C93.6871 28.5337 93.7894 28.6974 93.9477 28.8147C94.1087 28.9294 94.312 28.9867 94.5576 28.9867C94.7568 28.9867 94.911 28.9485 95.0201 28.872C95.132 28.7929 95.188 28.6838 95.188 28.5446C95.188 28.4518 95.1648 28.3809 95.1184 28.3317C95.0747 28.2799 94.9819 28.2294 94.84 28.1803C94.7009 28.1312 94.4621 28.0616 94.1237 27.9715C93.758 27.8788 93.4687 27.7751 93.2559 27.6605C93.043 27.5459 92.8888 27.4094 92.7933 27.2511C92.6978 27.0929 92.6501 26.8991 92.6501 26.6699C92.6501 26.3889 92.7224 26.1433 92.867 25.9331C93.0116 25.723 93.2163 25.562 93.481 25.4501C93.7457 25.3355 94.0555 25.2782 94.4102 25.2782C94.7541 25.2782 95.0597 25.3314 95.3271 25.4379C95.5973 25.5443 95.8143 25.6971 95.978 25.8963C96.1445 26.0928 96.2468 26.3234 96.285 26.5881L95.147 26.7927C95.1279 26.629 95.057 26.4994 94.9342 26.4039C94.8114 26.3084 94.6449 26.2524 94.4348 26.236L94.3488 26.2319C94.1687 26.2319 94.0241 26.2661 93.9149 26.3343C93.8085 26.4025 93.7553 26.4953 93.7553 26.6126C93.7553 26.6917 93.7826 26.7572 93.8371 26.8091C93.8917 26.8582 93.9981 26.91 94.1564 26.9646C94.3147 27.0165 94.574 27.0874 94.9342 27.1775C95.2726 27.2648 95.5427 27.3671 95.7447 27.4845C95.9466 27.5991 96.094 27.7369 96.1868 27.8979C96.2795 28.0589 96.3259 28.2553 96.3259 28.4873C96.3259 28.7875 96.2522 29.0481 96.1049 29.2691C95.9575 29.4874 95.7447 29.6552 95.4663 29.7725C95.188 29.8872 94.8578 29.9445 94.4757 29.9445Z" fill="#001826"/>
</g>
<g id="appic">
<path d="M58.7032 6.16797C58.8838 6.52916 58.9984 6.90425 59.047 7.29322C59.1026 7.67525 59.1304 8.15453 59.1304 8.73105V15.6389H56.9318V14.1281C56.4525 14.7602 55.8968 15.2221 55.2647 15.5138C54.6326 15.8056 53.872 15.9514 52.9828 15.9514C52.1909 15.9514 51.5102 15.8021 50.9406 15.5034C50.3779 15.1978 49.9473 14.788 49.6486 14.274C49.3568 13.76 49.2109 13.1869 49.2109 12.5548C49.2109 11.7283 49.4159 11.0371 49.8257 10.4814C50.2425 9.92576 50.892 9.49511 51.7741 9.18948C52.2673 9.02973 52.8335 8.89428 53.4725 8.78314C54.1186 8.66506 55.0389 8.51572 56.2337 8.33512L56.6713 8.27261C56.6227 7.61969 56.4143 7.14041 56.0462 6.83479C55.685 6.52916 55.1258 6.37635 54.3686 6.37635C53.8129 6.37635 53.3058 6.50485 52.8474 6.76185C52.3959 7.01886 52.0833 7.41478 51.9096 7.94962L49.6173 7.23071C49.9021 6.24438 50.4439 5.47337 51.2428 4.91769C52.0416 4.35506 53.0835 4.07375 54.3686 4.07375C55.4106 4.07375 56.3032 4.24393 57.0464 4.58428C57.7967 4.92463 58.3489 5.45253 58.7032 6.16797ZM56.39 12.086C56.5428 11.7178 56.6262 11.1344 56.6401 10.3356C55.5495 10.5092 54.7646 10.6412 54.2853 10.7315C53.8129 10.8149 53.3961 10.919 53.0349 11.0441C52.5834 11.2108 52.243 11.4122 52.0138 11.6484C51.7846 11.8845 51.67 12.1763 51.67 12.5236C51.67 12.9473 51.8262 13.2911 52.1388 13.5551C52.4584 13.819 52.9064 13.951 53.483 13.951C54.0178 13.951 54.4867 13.8572 54.8896 13.6697C55.2994 13.4752 55.6294 13.2355 55.8795 12.9507C56.1295 12.666 56.2997 12.3777 56.39 12.086Z" fill="#001826"/>
<path d="M65.4899 4.07375C66.5318 4.07375 67.4488 4.33075 68.2406 4.84476C69.0325 5.35182 69.6438 6.05683 70.0745 6.95982C70.5052 7.85585 70.7205 8.87344 70.7205 10.0126C70.7205 11.1378 70.5086 12.152 70.0849 13.0549C69.6612 13.951 69.0568 14.6595 68.2719 15.1804C67.4939 15.6944 66.5978 15.9514 65.5837 15.9514C64.4514 15.9514 63.4858 15.6562 62.687 15.0658V20.64H60.1551V4.38632H62.3744V5.199C63.201 4.44883 64.2395 4.07375 65.4899 4.07375ZM65.1981 13.7009C65.8302 13.7009 66.3582 13.5412 66.7819 13.2216C67.2126 12.9021 67.5321 12.4645 67.7405 11.9088C67.9558 11.3532 68.0635 10.7211 68.0635 10.0126C68.0635 9.31104 67.9558 8.68243 67.7405 8.12675C67.5252 7.57106 67.1952 7.13347 66.7506 6.81395C66.313 6.48749 65.7677 6.32426 65.1148 6.32426C64.1909 6.32426 63.5032 6.65419 63.0517 7.31406C62.6002 7.96699 62.3744 8.8665 62.3744 10.0126C62.3744 11.1587 62.6037 12.0617 63.0621 12.7215C63.5206 13.3745 64.2326 13.7009 65.1981 13.7009Z" fill="#001826"/>
<path d="M76.664 4.07375C77.706 4.07375 78.6229 4.33075 79.4148 4.84476C80.2067 5.35182 80.818 6.05683 81.2487 6.95982C81.6793 7.85585 81.8947 8.87344 81.8947 10.0126C81.8947 11.1378 81.6828 12.152 81.2591 13.0549C80.8353 13.951 80.231 14.6595 79.4461 15.1804C78.6681 15.6944 77.772 15.9514 76.7578 15.9514C75.6256 15.9514 74.66 15.6562 73.8612 15.0658V20.64H71.3292V4.38632H73.5486V5.199C74.3752 4.44883 75.4137 4.07375 76.664 4.07375ZM76.3723 13.7009C77.0044 13.7009 77.5323 13.5412 77.9561 13.2216C78.3867 12.9021 78.7063 12.4645 78.9147 11.9088C79.13 11.3532 79.2377 10.7211 79.2377 10.0126C79.2377 9.31104 79.13 8.68243 78.9147 8.12675C78.6993 7.57106 78.3694 7.13347 77.9248 6.81395C77.4872 6.48749 76.9419 6.32426 76.2889 6.32426C75.3651 6.32426 74.6774 6.65419 74.2259 7.31406C73.7744 7.96699 73.5486 8.8665 73.5486 10.0126C73.5486 11.1587 73.7778 12.0617 74.2363 12.7215C74.6947 13.3745 75.4067 13.7009 76.3723 13.7009Z" fill="#001826"/>
<path d="M85.2437 2.6776H82.7326V0.375H85.2437V2.6776ZM85.2437 15.6389H82.7326V4.38632H85.2437V15.6389Z" fill="#001826"/>
<path d="M91.5845 15.9514C90.4523 15.9514 89.4694 15.6979 88.6358 15.1908C87.8092 14.6768 87.1771 13.9718 86.7394 13.0758C86.3018 12.1728 86.0795 11.1517 86.0726 10.0126C86.0726 8.8665 86.2983 7.84543 86.7499 6.9494C87.2014 6.04642 87.8439 5.3414 88.6775 4.83434C89.518 4.32728 90.4974 4.07375 91.6158 4.07375C92.4632 4.07375 93.2308 4.21962 93.9185 4.51135C94.6062 4.80308 95.1793 5.21984 95.6377 5.76163C96.1031 6.29647 96.4227 6.93203 96.5963 7.66831L94.0956 8.34554C93.9081 7.74819 93.5851 7.27933 93.1266 6.93898C92.6751 6.59862 92.1611 6.42845 91.5845 6.42845C90.6398 6.42845 89.9278 6.75491 89.4485 7.40783C88.9762 8.06076 88.7365 8.92901 88.7296 10.0126C88.7365 11.117 88.9831 11.9922 89.4694 12.6382C89.9556 13.2772 90.6607 13.5967 91.5845 13.5967C92.2375 13.5967 92.7585 13.4509 93.1475 13.1591C93.5365 12.8604 93.8317 12.4124 94.0331 11.8151L96.5963 12.3881C96.249 13.5342 95.6412 14.4164 94.7729 15.0346C93.9046 15.6458 92.8418 15.9514 91.5845 15.9514Z" fill="#001826"/>
</g>
<path id="Union" fill-rule="evenodd" clip-rule="evenodd" d="M26.0994 3.83969C26.0994 3.2163 25.594 2.71094 24.9706 2.71094H15.4648C14.8392 2.71094 14.2416 2.97056 13.8147 3.42787L0.400803 17.7959C0.140726 18.0744 -0.00391769 18.4413 -0.00390625 18.8225L-0.00360853 28.6584C-0.00358967 29.2818 0.501762 29.7872 1.12514 29.7872H10.6312C11.2566 29.7872 11.8539 29.5277 12.2806 29.0706L22.0891 18.5643C22.7882 17.8155 24.0429 18.3102 24.0429 19.3346L24.0428 24.8221C24.0427 25.3835 24.252 25.9247 24.6296 26.34L27.1969 29.1641C27.482 29.4777 27.8862 29.6565 28.31 29.6565H37.755C38.3783 29.6565 38.8837 29.1511 38.8837 28.5278L38.884 18.8257C38.884 18.3579 38.7097 17.9069 38.395 17.5608L35.8418 14.7525C35.4853 14.3603 34.9799 14.1367 34.4498 14.1367H27.2281C26.6047 14.1367 26.0994 13.6314 26.0994 13.008V3.83969Z" fill="#001826"/>
</g>
</svg>
