<svg width="32768" height="8739" viewBox="0 0 32768 8739" fill="none" xmlns="http://www.w3.org/2000/svg">
<path fill-rule="evenodd" clip-rule="evenodd" d="M32768 0H0V8738.13H32768V0ZM16770.4 3481.6H16106.5C16072.1 3481.6 16039.1 3495.69 16015.3 3520.59L15101.8 4475.2C15086.8 4490.87 15078.4 4511.72 15078.4 4533.4L15078.4 5194.64C15078.4 5229.52 15106.7 5257.8 15141.6 5257.8H15805.5C15839.9 5257.8 15872.9 5243.72 15896.7 5218.83L16585.8 4498.77C16625.1 4457.63 16694.6 4485.5 16694.6 4542.44L16694.6 4947.73C16694.6 4979.68 16706.7 5010.44 16728.5 5033.81L16911.8 5230.56C16927.7 5247.64 16950 5257.35 16973.4 5257.35H17629.3C17664.2 5257.35 17692.5 5229.07 17692.5 5194.19L17692.5 4540.59C17692.5 4513.96 17682.4 4488.33 17664.2 4468.85L17481.5 4272.76C17461.6 4251.39 17433.7 4239.25 17404.5 4239.25H16896.8C16861.9 4239.25 16833.6 4210.97 16833.6 4176.09V3544.77C16833.6 3509.88 16805.3 3481.6 16770.4 3481.6Z" fill="white"/>
</svg>
